<svg width="276" height="336"
    xmlns="http://www.w3.org/2000/svg" version="1.1">
    <g>
        <title>Layer 1</title>
        <path id="svg_1" d="m246.652,19.734l29.598,0l0,-19.734l-276.25,0l0,19.734l30.094,0l-0.00391,0c2.1289,37.215 17.902,72.344 44.301,98.664l49.824,49.328l-49.824,49.824c-26.398,26.32 -42.172,61.449 -44.301,98.664l-30.09,0l0,19.734l276.25,0l0,-20.227l-29.598,0c-2.25,-37.043 -18.012,-71.977 -44.301,-98.172l-50.316,-49.824l49.824,-49.328c26.578,-26.246 42.531,-61.379 44.793,-98.664l-0.00009,0.001zm-58.211,211.73c22.598,22.504 36.266,52.441 38.477,84.258l-177.59,0c2.4766,-31.949 16.508,-61.902 39.469,-84.258l49.328,-49.824l50.316,49.824zm-50.32,-77.648l-49.328,-49.824c-22.961,-22.355 -36.992,-52.309 -39.469,-84.258l177.59,0c-2.2344,31.828 -15.941,61.766 -38.574,84.258l-50.219,49.824z"/>
    </g>
</svg>

